<svg xmlns="http://www.w3.org/2000/svg" xmlns:xlink="http://www.w3.org/1999/xlink" viewBox="0 0 91.19 57.37"><defs><style>.cls-1{stroke:#dedede;stroke-miterlimit:10;fill:url(#linear-gradient);}.cls-2{fill:#fff;}.cls-3{fill:#0078a9;}</style><linearGradient id="linear-gradient" x1="45.59" y1="0.5" x2="45.59" y2="56.87" gradientUnits="userSpaceOnUse"><stop offset="0" stop-color="#83cbed"/><stop offset="1" stop-color="#2983ba"/></linearGradient></defs><title>Asset 12</title><g id="Layer_2" data-name="Layer 2"><g id="Layer_1-2" data-name="Layer 1"><rect class="cls-1" x="0.5" y="0.5" width="90.19" height="56.37" rx="3.01" ry="3.01"/><path class="cls-2" d="M26.69,28.07v-.94l-.45.94H22.36l-.49-1v1H14.62l-.86-2H12.31l-.91,2H5.15l2.5-6.12,2.76-6.24h5.28l.74,1.77V15.72h6.45l1.42,3,1.39-3H46.05a3.47,3.47,0,0,1,1.77.48v-.48H53v.68a4.17,4.17,0,0,1,2.29-.68H64.3l.8,1.79V15.71h5.8L72,17.5V15.71H77.5V28.08H71.8l-1.34-2.16v2.14H63.38l-1-2.21H61l-.94,2.21H55.77a5.55,5.55,0,0,1-2.8-.88v.88H44.43V25.18c0-.42-.32-.39-.32-.39H43.8v3.28Z"/><path class="cls-2" d="M22.43,30.74H33.65l1.62,1.83,1.66-1.83h8.62a4,4,0,0,1,1.58.43v-.43H54.8a3.92,3.92,0,0,1,1.79.49v-.49h9.87v.45a3.34,3.34,0,0,1,1.65-.45h6.43v.45a3.93,3.93,0,0,1,1.67-.45h6V42.4a9,9,0,0,1-3,.75H72.57v-.37a3.41,3.41,0,0,1-1.6.37H53.29v-3c0-.3-.13-.35-.39-.35h-.24v3.36H47.12V39.81a3.72,3.72,0,0,1-1.64.33h-2v3H36.69l-1.55-1.89-1.66,1.89H22.43Z"/><polygon class="cls-3" points="57.78 32.6 64.82 32.6 64.82 34.49 59.94 34.49 59.94 36.14 64.68 36.14 64.68 37.8 59.94 37.8 59.94 39.53 64.82 39.53 64.82 41.37 57.78 41.37 57.78 32.6"/><path class="cls-3" d="M78.42,36c2.65.14,2.87,1.46,2.87,2.87a2.56,2.56,0,0,1-2.76,2.53H74V39.53h3.52c.6,0,1.49,0,1.49-.84,0-.4-.16-.66-.79-.72-.28,0-1.33-.1-1.49-.1-2.39-.06-2.95-1.25-2.95-2.7a2.42,2.42,0,0,1,2.57-2.54h4.52V34.5H77.57c-.75,0-1.56-.09-1.56.76,0,.54.4.65.91.7Z"/><path class="cls-3" d="M70.31,36c2.65.14,2.87,1.46,2.87,2.87a2.56,2.56,0,0,1-2.76,2.53H65.9V39.53h3.52c.6,0,1.49,0,1.49-.84,0-.4-.16-.66-.79-.72-.28,0-1.33-.1-1.49-.1-2.39-.06-2.95-1.25-2.95-2.7a2.42,2.42,0,0,1,2.56-2.54h4.52V34.5H69.46c-.75,0-1.57-.09-1.57.76,0,.54.4.65.91.7Z"/><path class="cls-3" d="M44.78,32.62H37.23l-2.47,2.72L32.37,32.6H23.88v8.77H32.1l2.58-2.9,2.53,2.92h4.13v-3h2.9c1.12,0,3.15,0,3.15-3.11A2.43,2.43,0,0,0,44.78,32.62ZM31,39.53H26V37.8h4.75V36.14H26V34.49h5.24l2.1,2.39Zm8.23,1-3.09-3.66,3.09-3.43Zm4.85-3.94H41.38V34.51h2.69a1.06,1.06,0,1,1,0,2.11Z"/><path class="cls-3" d="M55.18,37.4A2.39,2.39,0,0,0,56.67,35a2.31,2.31,0,0,0-2.58-2.35h-5.6v8.77h2.15V38.3h2.82c.74,0,1,.74,1.06,1.49l.06,1.61h2.1l-.08-1.8C56.59,38.18,56.2,37.52,55.18,37.4Zm-1.86-.91H50.64v-2h2.69a1,1,0,0,1,1.18,1C54.52,36.1,54.2,36.49,53.32,36.49Z"/><rect class="cls-3" x="49.35" y="17.46" width="2.15" height="8.78"/><polygon class="cls-3" points="31.73 17.48 38.76 17.48 38.76 19.36 33.88 19.36 33.88 21.01 38.63 21.01 38.63 22.67 33.88 22.67 33.88 24.4 38.76 24.4 38.76 26.25 31.73 26.25 31.73 17.48"/><path class="cls-3" d="M46.74,22.25a2.39,2.39,0,0,0,1.49-2.43,2.31,2.31,0,0,0-2.59-2.35H40v8.77h2.15V23.15H45c.75,0,1,.74,1.06,1.49l.06,1.61h2.09l-.08-1.8C48.15,23,47.75,22.37,46.74,22.25Zm-1.86-.91H42.19v-2h2.69a1,1,0,0,1,1.18,1C46.07,21,45.76,21.34,44.88,21.34Z"/><path class="cls-3" d="M26.76,17.47l-2.64,5.88-2.63-5.88H18.11v8.45l-3.76-8.45H11.5L7.66,26.24H9.93l.84-2h4.3l.85,2h4.34V19.73l2.88,6.51h2L28,19.84v6.4H30.2V17.47ZM11.59,22.39l1.28-3.07,1.34,3.07Z"/><path class="cls-3" d="M73.72,17.47v6.07l-3.63-6.07H66.91v8.24l-3.67-8.23H60.39l-3,6.79s-1.25,0-1.38,0c-.52-.11-1.33-.47-1.34-2v-.64c0-2.06,1.12-2.21,2.55-2.21h1.33V17.47H55.77c-1,0-3.11.75-3.18,4.35,0,2.43,1,4.43,3.4,4.43h2.84l.84-2H64l.85,2h4.25V19.83l3.88,6.42h2.94V17.47ZM60.5,22.4l1.28-3.07,1.35,3.07Z"/></g></g></svg>